<svg xmlns="http://www.w3.org/2000/svg" xmlns:xlink="http://www.w3.org/1999/xlink" id="Capa_1" width="512" height="512" x="0" y="0" enable-background="new 0 0 124 124" version="1.1" viewBox="0 0 124 124" xml:space="preserve"><g><g><path fill="#FFF" d="M112,6H12C5.4,6,0,11.4,0,18s5.4,12,12,12h100c6.6,0,12-5.4,12-12S118.6,6,112,6z" class="active-path" data-old_color="#000000" data-original="#000000"/><path fill="#FFF" d="M112,50H12C5.4,50,0,55.4,0,62c0,6.6,5.4,12,12,12h100c6.6,0,12-5.4,12-12C124,55.4,118.6,50,112,50z" class="active-path" data-old_color="#000000" data-original="#000000"/><path fill="#FFF" d="M112,94H12c-6.6,0-12,5.4-12,12s5.4,12,12,12h100c6.6,0,12-5.4,12-12S118.6,94,112,94z" class="active-path" data-old_color="#000000" data-original="#000000"/></g></g></svg>